# xmcd CD database file
#
# Track frame offsets:
#	150
#	10947
#	26552
#	50822
#	61430
#	76930
#	91410
#	110542
#	132562
#	144087
#	159982
#	173832
#	195570
#	205357
#
# Disc length: 2882 seconds
#
# Revision: 0
# Processed by: cddbd v1.5PL3 Copyright (c) Steve Scherf et al.
# Submitted via: CDex 1.51
#
DISCID=bc0b400e
DTITLE=Big Boy Henry and Friends - Carolina Blues Jam
DYEAR=1993
DGENRE=Blues
TTITLE0=The New "Mr. President"
TTITLE1=Corrine
TTITLE2=john Henry
TTITLE3=My Baby Won't Let Me In
TTITLE4=Airport Blues
TTITLE5=Lookin' for My Woman
TTITLE6=Holland Boogie
TTITLE7=My Little Dog
TTITLE8=Goodbye, Little Girl
TTITLE9=Talkin' with Mr. Henry
TTITLE10=Rockin' Little Woman
TTITLE11=Just like My Child
TTITLE12=Big Boy's Jump
TTITLE13=Do, Lord
EXTD=YEAR: 1993
EXTT0=
EXTT1=
EXTT2=
EXTT3=
EXTT4=
EXTT5=
EXTT6=
EXTT7=
EXTT8=
EXTT9=
EXTT10=
EXTT11=
EXTT12=
EXTT13=
PLAYORDER=
